# xmcd
#
# Track frame offsets: 
#        150
#        17948
#        32805
#        50473
#        66907
#        84068
#        103367
#        125583
#        138212
#        150982
#        199005
#        233846
#
# Disc length: 3795 seconds
#
# Revision: 1
# Processed by: cddbd v1.5.2PL0 Copyright (c) Steve Scherf et al.
# Submitted via: ExactAudioCopy v1.4
#
DISCID=9a0ed10c
DTITLE=Various Artist - Elac References
DYEAR=2019
DGENRE=Audiophile
TTITLE0=The Rembrandts - How Far Would You Go
TTITLE1=Wolfgang Bernreuther - Them Bags
TTITLE2=Chris Jones and Charlie Carr - Moving You Out
TTITLE3=Claire Martin - Timeline
TTITLE4=Hilde Louise Asbjörnsen - Return To Start
TTITLE5=Blaues Wunder - Hi End Loesung
TTITLE6=Elin Furubotn - Tankane Har Fargar
TTITLE7=Mara and David - Call It Freedom
TTITLE8=Ian Smith - When It Snows In N.Y. City
TTITLE9=Antonin Dvoräk - Sinfonie Nr. 8, 2. Satz
TTITLE10=Johannes Brahms - Violinkonzert, 3. Satz
TTITLE11=Camille Saint Saens - Klavierkonzert Nr. 5, 2. Satz
EXTD=
EXTT0=
EXTT1=
EXTT2=
EXTT3=
EXTT4=
EXTT5=
EXTT6=
EXTT7=
EXTT8=
EXTT9=
EXTT10=
EXTT11=
PLAYORDER=
